<mxfile host="app.diagrams.net" agent="Mozilla/5.0 (Windows NT 10.0; Win64; x64) AppleWebKit/537.36 (KHTML, like Gecko) Chrome/138.0.0.0 Safari/537.36 Edg/138.0.0.0" version="28.2.2">
  <diagram name="第 1 页" id="tz1_SnYvsk7TLFXO1LLX">
    <mxGraphModel dx="799" dy="466" grid="1" gridSize="10" guides="1" tooltips="1" connect="1" arrows="1" fold="1" page="1" pageScale="1" pageWidth="827" pageHeight="1169" math="0" shadow="0">
      <root>
        <mxCell id="0" />
        <mxCell id="1" parent="0" />
        <mxCell id="5JuFqrLq1j_zj2wX6o_l-1" value="" style="rounded=0;whiteSpace=wrap;html=1;dashed=1;dashPattern=8 8;fillColor=#f5f5f5;fontColor=#333333;strokeColor=#666666;" vertex="1" parent="1">
          <mxGeometry x="184" y="160" width="460" height="260" as="geometry" />
        </mxCell>
        <mxCell id="5JuFqrLq1j_zj2wX6o_l-2" value="" style="rounded=0;whiteSpace=wrap;html=1;dashed=1;dashPattern=12 12;fillColor=#e1d5e7;strokeColor=#9673a6;" vertex="1" parent="1">
          <mxGeometry x="424" y="170" width="200" height="130" as="geometry" />
        </mxCell>
        <mxCell id="5JuFqrLq1j_zj2wX6o_l-7" value="&lt;b&gt;&lt;font face=&quot;宋体&quot;&gt;底层执行器&lt;/font&gt;&lt;/b&gt;" style="text;html=1;align=center;verticalAlign=middle;whiteSpace=wrap;rounded=0;" vertex="1" parent="1">
          <mxGeometry x="484" y="170" width="70" height="30" as="geometry" />
        </mxCell>
        <mxCell id="5JuFqrLq1j_zj2wX6o_l-9" value="外部接口" style="rounded=0;whiteSpace=wrap;html=1;" vertex="1" parent="1">
          <mxGeometry x="489" y="440" width="70" height="30" as="geometry" />
        </mxCell>
        <mxCell id="5JuFqrLq1j_zj2wX6o_l-11" value="" style="rounded=0;whiteSpace=wrap;html=1;dashed=1;dashPattern=12 12;fillColor=#d5e8d4;strokeColor=#82b366;" vertex="1" parent="1">
          <mxGeometry x="194" y="170" width="210" height="130" as="geometry" />
        </mxCell>
      </root>
    </mxGraphModel>
  </diagram>
</mxfile>
